<?xml version="1.0" encoding="UTF-8"?>
<svg xmlns="http://www.w3.org/2000/svg" xmlns:xlink="http://www.w3.org/1999/xlink" width="50pt" height="56pt" viewBox="0 0 50 56" version="1.1">
<g id="surface1">
<path style=" stroke:none;fill-rule:nonzero;fill:rgb(29.803922%,68.627451%,31.372549%);fill-opacity:1;" d="M 36.707031 0.0390625 C 36.457031 0.0820312 36.339844 0.136719 36.195312 0.300781 C 36.078125 0.4375 36 0.773438 36.023438 1.0625 C 36.03125 1.15625 36.023438 1.230469 36.011719 1.230469 C 36 1.230469 35.835938 1.167969 35.644531 1.097656 C 35.132812 0.902344 34.910156 0.867188 34.304688 0.921875 C 33.46875 0.992188 33.140625 1.117188 32.902344 1.441406 C 32.796875 1.574219 32.761719 1.695312 32.710938 2.046875 C 32.679688 2.285156 32.644531 2.484375 32.644531 2.488281 C 32.636719 2.492188 32.5 2.472656 32.339844 2.449219 C 32.121094 2.414062 31.996094 2.414062 31.847656 2.453125 C 31.671875 2.503906 31.640625 2.53125 31.539062 2.734375 C 31.382812 3.070312 31.394531 3.359375 31.582031 3.773438 C 31.824219 4.296875 32.085938 4.699219 32.46875 5.113281 C 32.800781 5.480469 32.839844 5.507812 32.980469 5.496094 L 33.136719 5.476562 L 32.796875 5.824219 C 32.382812 6.234375 31.964844 6.765625 31.613281 7.300781 C 31.285156 7.800781 30.167969 10.078125 29.949219 10.675781 C 29.507812 11.898438 28.675781 15.308594 27.796875 19.496094 C 27.703125 19.953125 27.605469 20.335938 27.585938 20.355469 C 27.550781 20.382812 24.96875 20.914062 24.199219 21.046875 C 21.484375 21.519531 20.535156 21.636719 18.898438 21.675781 C 17.488281 21.71875 17.035156 21.757812 16.195312 21.9375 C 15.5 22.085938 14.34375 22.472656 13.824219 22.734375 L 13.644531 22.816406 L 13.644531 22.085938 C 13.644531 21.675781 13.621094 21.21875 13.597656 21.0625 C 13.550781 20.785156 13.136719 19.699219 13.027344 19.570312 C 13 19.535156 12.921875 19.402344 12.859375 19.28125 C 12.75 19.066406 12.355469 18.671875 12.15625 18.566406 C 12.066406 18.519531 12.011719 18.53125 11.789062 18.628906 C 11.652344 18.695312 11.515625 18.75 11.5 18.75 C 11.460938 18.757812 10.78125 17.726562 10.246094 16.851562 C 9.75 16.035156 9.089844 15.070312 8.757812 14.675781 C 8.464844 14.328125 7.992188 13.917969 7.679688 13.753906 C 7.441406 13.632812 7.097656 13.574219 6.855469 13.621094 C 6.648438 13.660156 6.316406 13.945312 6.140625 14.238281 C 5.953125 14.550781 5.769531 15.078125 5.769531 15.265625 C 5.777344 15.390625 5.703125 15.667969 5.667969 15.667969 C 5.667969 15.667969 5.425781 15.585938 5.136719 15.492188 C 4.257812 15.207031 3.917969 15.175781 3.59375 15.335938 C 3.253906 15.503906 3.125 15.796875 3.125 16.433594 C 3.125 16.902344 3.128906 16.917969 3.273438 17.15625 C 3.363281 17.289062 3.539062 17.511719 3.671875 17.65625 C 3.808594 17.796875 3.90625 17.917969 3.894531 17.929688 C 3.882812 17.945312 3.792969 17.929688 3.699219 17.898438 C 3.421875 17.800781 2.757812 17.828125 2.449219 17.941406 C 2.070312 18.082031 1.679688 18.347656 1.523438 18.558594 C 1.40625 18.730469 1.386719 18.785156 1.394531 19.039062 C 1.398438 19.578125 1.742188 20.066406 2.417969 20.507812 C 2.667969 20.667969 2.960938 20.882812 3.316406 21.136719 L 3.503906 21.269531 L 3.152344 21.289062 C 2.957031 21.300781 2.65625 21.28125 2.480469 21.246094 C 1.765625 21.132812 0.890625 21.207031 0.5 21.417969 C 0.308594 21.519531 0.113281 21.789062 0.0429688 22.046875 C -0.0273438 22.285156 0.0195312 22.996094 0.117188 23.277344 C 0.207031 23.523438 0.53125 23.855469 1.136719 24.3125 C 1.324219 24.457031 1.546875 24.636719 1.628906 24.710938 C 1.777344 24.847656 1.777344 24.859375 1.753906 25.117188 C 1.664062 25.996094 1.667969 26.164062 1.785156 26.328125 C 1.84375 26.40625 2.058594 26.59375 2.277344 26.730469 C 2.699219 27.007812 3.777344 27.554688 4.074219 27.644531 C 4.167969 27.675781 4.316406 27.722656 4.386719 27.753906 C 4.464844 27.78125 4.609375 27.828125 4.707031 27.851562 C 4.808594 27.882812 5.046875 27.953125 5.230469 28.011719 C 5.417969 28.070312 6.226562 28.324219 7.027344 28.574219 L 8.484375 29.03125 L 8.496094 29.308594 L 8.507812 29.59375 L 8.40625 29.5 C 8.125 29.246094 7.402344 29.046875 6.414062 28.960938 C 5.730469 28.902344 3.289062 28.902344 2.503906 28.960938 C 1.296875 29.054688 0.800781 29.175781 0.441406 29.484375 C 0.15625 29.726562 0.046875 30.019531 0.164062 30.238281 C 0.300781 30.488281 0.832031 30.828125 1.386719 31.015625 C 2.230469 31.289062 2.917969 31.375 4.207031 31.375 C 4.757812 31.375 5.28125 31.390625 5.367188 31.40625 L 5.527344 31.441406 L 5.230469 31.546875 C 4.59375 31.773438 3.671875 32.289062 3.238281 32.667969 C 2.984375 32.886719 2.898438 33.046875 2.917969 33.261719 C 2.929688 33.390625 2.957031 33.421875 3.09375 33.464844 C 3.59375 33.625 5.769531 33.367188 7.394531 32.949219 C 7.804688 32.847656 8.644531 32.578125 8.964844 32.445312 C 9.03125 32.421875 9.0625 32.476562 9.148438 32.71875 C 9.433594 33.550781 10.070312 34.808594 10.625 35.613281 C 10.808594 35.890625 10.964844 36.132812 10.964844 36.160156 C 10.964844 36.1875 11.175781 36.46875 11.433594 36.78125 C 11.691406 37.101562 12.019531 37.519531 12.167969 37.710938 C 12.316406 37.90625 12.46875 38.089844 12.511719 38.117188 C 12.554688 38.144531 12.742188 38.53125 12.921875 38.96875 C 13.371094 40.054688 13.871094 40.953125 14.4375 41.714844 C 14.535156 41.84375 14.601562 41.949219 14.585938 41.949219 C 14.582031 41.949219 14.480469 41.898438 14.367188 41.84375 C 13.988281 41.640625 13.3125 41.410156 12.925781 41.351562 C 12.566406 41.292969 12.078125 41.304688 12.03125 41.371094 C 12.019531 41.390625 12.121094 41.464844 12.25 41.554688 C 12.375 41.636719 12.972656 42.042969 13.578125 42.457031 C 14.183594 42.867188 14.851562 43.308594 15.0625 43.429688 C 15.269531 43.554688 15.515625 43.703125 15.601562 43.769531 C 15.851562 43.941406 16.851562 44.90625 17.011719 45.125 C 17.09375 45.230469 17.265625 45.390625 17.402344 45.480469 C 17.742188 45.703125 18.058594 46.207031 18.332031 46.960938 C 18.503906 47.4375 19.640625 49.652344 19.941406 50.109375 C 20.382812 50.765625 20.808594 51.289062 21.371094 51.878906 C 21.53125 52.042969 21.839844 52.398438 22.058594 52.664062 C 22.457031 53.148438 22.460938 53.160156 22.398438 53.273438 C 22.332031 53.402344 22.332031 53.402344 22.484375 53.402344 C 22.617188 53.402344 22.664062 53.425781 22.769531 53.585938 L 22.902344 53.769531 L 22.941406 53.566406 C 22.996094 53.3125 22.84375 53.347656 24.542969 53.199219 C 25.242188 53.140625 26.042969 53.054688 26.316406 53.007812 C 26.773438 52.9375 26.898438 52.929688 27.722656 52.984375 C 28.226562 53.019531 28.738281 53.066406 28.859375 53.09375 C 28.992188 53.125 29.277344 53.148438 29.507812 53.140625 C 30.027344 53.128906 30.457031 53.257812 31.339844 53.679688 C 31.664062 53.839844 32.347656 54.128906 32.851562 54.324219 C 33.359375 54.515625 33.878906 54.722656 34 54.777344 C 34.375 54.9375 35.144531 55.183594 35.746094 55.332031 C 36.332031 55.46875 37.53125 55.679688 37.753906 55.679688 C 37.941406 55.679688 39.050781 55.882812 39.707031 56.03125 C 40.015625 56.105469 40.28125 56.160156 40.289062 56.144531 C 40.296875 56.136719 40.238281 56.046875 40.152344 55.9375 C 39.984375 55.722656 39.496094 55.316406 39.125 55.070312 C 38.988281 54.984375 38.824219 54.878906 38.761719 54.832031 C 38.652344 54.765625 37.375 54.351562 36.867188 54.226562 C 36.746094 54.199219 36.5625 54.132812 36.472656 54.09375 C 36.378906 54.039062 36.023438 53.914062 35.675781 53.796875 C 34.386719 53.367188 34.113281 53.265625 33.984375 53.203125 C 33.917969 53.171875 33.804688 53.128906 33.746094 53.117188 C 33.464844 53.070312 31.980469 52.414062 31.980469 52.34375 C 31.980469 52.292969 32.785156 52.246094 33.40625 52.253906 C 34.136719 52.261719 35.957031 52.1875 36.503906 52.121094 C 38.328125 51.910156 39.6875 51.667969 40.152344 51.464844 C 40.363281 51.371094 40.820312 51.25 40.949219 51.25 C 41.066406 51.25 41.046875 51.175781 40.910156 51.085938 C 40.800781 51.019531 40.691406 51.003906 40.144531 51.019531 C 39.695312 51.023438 39.398438 51.003906 39.132812 50.960938 C 38.78125 50.886719 38.703125 50.886719 37.675781 50.976562 C 37.082031 51.027344 36.300781 51.089844 35.945312 51.117188 C 35.585938 51.140625 35.179688 51.183594 35.042969 51.207031 C 34.898438 51.230469 34.628906 51.230469 34.378906 51.199219 C 34.148438 51.179688 33.425781 51.148438 32.785156 51.140625 L 31.605469 51.117188 L 31.191406 50.945312 C 30.960938 50.851562 30.679688 50.75 30.566406 50.722656 C 30.378906 50.679688 30.339844 50.644531 30.167969 50.367188 C 30.058594 50.199219 29.988281 50.046875 30 50.019531 C 30.011719 49.996094 29.976562 49.929688 29.917969 49.882812 C 29.730469 49.710938 29.375 49.109375 29.40625 49.015625 C 29.425781 48.949219 29.410156 48.925781 29.335938 48.914062 C 29.269531 48.902344 29.191406 48.816406 29.085938 48.636719 C 29.003906 48.496094 28.902344 48.335938 28.855469 48.296875 C 28.8125 48.257812 28.769531 48.191406 28.765625 48.15625 C 28.761719 48.125 28.707031 48.023438 28.648438 47.953125 C 28.582031 47.871094 28.480469 47.679688 28.410156 47.515625 C 28.339844 47.363281 28.226562 47.15625 28.15625 47.058594 C 28.089844 46.960938 27.976562 46.777344 27.902344 46.644531 C 27.675781 46.238281 27.414062 45.765625 27.097656 45.171875 C 26.925781 44.855469 26.75 44.570312 26.703125 44.523438 C 26.652344 44.488281 26.488281 44.441406 26.339844 44.425781 C 26.1875 44.410156 26.054688 44.382812 26.042969 44.363281 C 26.03125 44.347656 26.15625 44.304688 26.316406 44.277344 C 26.738281 44.191406 27.109375 44.007812 27.28125 43.796875 C 27.4375 43.613281 27.898438 42.785156 27.941406 42.613281 C 27.960938 42.539062 28 42.519531 28.082031 42.519531 C 28.148438 42.519531 28.476562 42.464844 28.800781 42.402344 C 31.582031 41.882812 34.679688 40.792969 38.515625 38.984375 C 39.660156 38.445312 39.792969 38.371094 40.292969 37.984375 C 42.515625 36.257812 44.152344 34.347656 45.304688 32.121094 C 45.730469 31.292969 46.238281 30.085938 46.546875 29.15625 C 47.605469 25.96875 47.398438 22.722656 45.945312 19.578125 L 45.625 18.890625 L 45.441406 17.355469 C 45.339844 16.507812 45.226562 15.648438 45.191406 15.449219 C 45.097656 14.9375 45.011719 13.832031 45.046875 13.644531 L 45.078125 13.496094 L 45.5 13.488281 C 45.855469 13.484375 45.960938 13.464844 46.179688 13.363281 C 46.601562 13.171875 46.839844 12.84375 46.941406 12.304688 C 47 12.007812 47 11.363281 46.941406 11.015625 C 46.925781 10.878906 46.921875 10.550781 46.933594 10.285156 L 46.957031 9.792969 L 47.277344 9.742188 C 47.902344 9.65625 48.109375 9.652344 48.421875 9.699219 C 48.917969 9.777344 49.679688 9.828125 49.839844 9.800781 L 49.988281 9.777344 L 49.867188 9.597656 C 49.804688 9.5 49.714844 9.308594 49.667969 9.175781 C 49.324219 8.230469 48.191406 7.222656 46.648438 6.5 C 46.175781 6.273438 45.332031 5.941406 44.320312 5.570312 C 43.980469 5.445312 44.003906 5.605469 44.082031 4.09375 L 44.128906 3.082031 L 44.011719 2.679688 C 43.863281 2.160156 43.71875 1.902344 43.488281 1.703125 C 43.253906 1.492188 43.050781 1.441406 42.785156 1.511719 C 42.515625 1.59375 42.332031 1.6875 42.148438 1.84375 L 41.996094 1.976562 L 41.964844 1.636719 C 41.925781 1.171875 41.792969 0.789062 41.535156 0.375 L 41.3125 0.0234375 L 41 0.0078125 C 40.695312 -0.00390625 40.660156 0.00390625 40.339844 0.183594 C 39.964844 0.394531 39.671875 0.660156 39.542969 0.898438 L 39.457031 1.058594 L 39.355469 0.925781 C 39.230469 0.769531 38.800781 0.4375 38.539062 0.3125 C 38.109375 0.101562 37.191406 -0.0351562 36.707031 0.0390625 Z M 43.347656 5.003906 C 43.484375 5.117188 43.503906 5.148438 43.417969 5.097656 C 43.222656 4.972656 42.945312 4.726562 43.054688 4.78125 C 43.105469 4.800781 43.238281 4.898438 43.347656 5.003906 Z M 8.140625 16.761719 C 8.195312 16.832031 8.230469 16.890625 8.214844 16.890625 C 8.207031 16.890625 8.152344 16.832031 8.097656 16.761719 C 8.042969 16.6875 8.011719 16.628906 8.023438 16.628906 C 8.035156 16.628906 8.089844 16.6875 8.140625 16.761719 Z M 7.824219 16.9375 C 7.851562 16.984375 7.863281 17.023438 7.851562 17.023438 C 7.839844 17.023438 7.804688 16.984375 7.78125 16.9375 C 7.75 16.890625 7.742188 16.847656 7.75 16.847656 C 7.761719 16.847656 7.796875 16.890625 7.824219 16.9375 Z M 8.503906 30.230469 C 8.503906 30.25 8.484375 30.273438 8.457031 30.273438 C 8.433594 30.273438 8.425781 30.25 8.4375 30.230469 C 8.449219 30.207031 8.472656 30.1875 8.488281 30.1875 C 8.496094 30.1875 8.503906 30.207031 8.503906 30.230469 Z M 18.621094 41.929688 C 18.644531 41.992188 18.640625 41.992188 18.582031 41.949219 C 18.503906 41.882812 18.496094 41.859375 18.554688 41.859375 C 18.578125 41.859375 18.609375 41.890625 18.621094 41.929688 Z M 19.011719 42.496094 C 19.011719 42.507812 18.996094 42.519531 18.96875 42.519531 C 18.925781 42.519531 18.738281 42.207031 18.738281 42.140625 C 18.738281 42.121094 18.804688 42.191406 18.878906 42.285156 C 18.957031 42.390625 19.011719 42.484375 19.011719 42.496094 Z M 19.726562 43.25 C 20.398438 43.886719 21.269531 44.339844 22.203125 44.535156 L 22.457031 44.589844 L 22.835938 45.410156 C 23.050781 45.855469 23.230469 46.234375 23.25 46.246094 C 23.269531 46.257812 23.359375 46.402344 23.449219 46.570312 C 23.914062 47.421875 24.648438 48.460938 25.214844 49.078125 C 25.378906 49.25 25.4375 49.339844 25.359375 49.28125 C 25.160156 49.136719 24.699219 48.820312 24.613281 48.773438 C 24.574219 48.742188 24.449219 48.65625 24.335938 48.566406 C 24.121094 48.40625 23.226562 47.792969 22.898438 47.585938 C 22.800781 47.527344 22.496094 47.269531 22.238281 47.023438 C 21.980469 46.773438 21.484375 46.347656 21.144531 46.058594 C 20.59375 45.605469 20.503906 45.515625 20.382812 45.261719 C 20.28125 45.054688 20.242188 44.921875 20.242188 44.742188 C 20.242188 44.542969 20.222656 44.488281 20.125 44.398438 C 19.964844 44.253906 19.550781 43.585938 19.53125 43.449219 C 19.527344 43.382812 19.480469 43.304688 19.433594 43.265625 C 19.324219 43.179688 19.058594 42.726562 19.058594 42.628906 C 19.058594 42.574219 19.125 42.617188 19.25 42.761719 C 19.355469 42.882812 19.570312 43.101562 19.726562 43.25 Z M 20.078125 46.621094 C 20.195312 46.691406 20.511719 46.925781 20.773438 47.148438 C 21.039062 47.363281 21.519531 47.742188 21.851562 47.988281 C 22.179688 48.242188 22.605469 48.554688 22.792969 48.699219 C 22.980469 48.84375 23.214844 49.007812 23.316406 49.0625 C 23.410156 49.109375 23.535156 49.191406 23.582031 49.230469 C 23.75 49.363281 25.207031 50.21875 25.707031 50.476562 C 25.96875 50.613281 26.296875 50.757812 26.433594 50.804688 C 26.695312 50.894531 27.046875 51.050781 27.152344 51.136719 C 27.183594 51.160156 27.238281 51.183594 27.269531 51.183594 C 27.320312 51.183594 27.65625 51.445312 27.65625 51.488281 C 27.65625 51.5 27.5625 51.523438 27.441406 51.539062 C 27.320312 51.554688 27.058594 51.617188 26.863281 51.671875 C 26.660156 51.730469 26.003906 51.875 25.402344 51.996094 C 24.203125 52.234375 23.683594 52.371094 23.269531 52.582031 C 23.113281 52.65625 22.984375 52.722656 22.972656 52.730469 C 22.957031 52.734375 22.917969 52.585938 22.882812 52.398438 C 22.847656 52.214844 22.792969 51.996094 22.761719 51.914062 C 22.6875 51.742188 22.152344 50.871094 21.941406 50.589844 C 21.863281 50.480469 21.761719 50.304688 21.714844 50.195312 C 21.667969 50.085938 21.554688 49.871094 21.457031 49.71875 C 21.261719 49.410156 20.90625 48.773438 20.65625 48.285156 C 20.570312 48.117188 20.480469 47.972656 20.46875 47.957031 C 20.421875 47.929688 20.101562 47.304688 20.058594 47.167969 C 20.042969 47.109375 19.972656 46.921875 19.90625 46.761719 C 19.839844 46.59375 19.804688 46.464844 19.824219 46.476562 C 19.847656 46.484375 19.960938 46.546875 20.078125 46.621094 Z M 20.078125 46.621094 "/>
</g>
</svg>
